<svg xmlns="http://www.w3.org/2000/svg" viewBox="0 0 48 48" role="img" aria-label="Google">
  <path fill="#FFC107" d="M43.61 20.08H42V20H24v8h11.3C33.65 32.66 29.21 36 24 36c-6.63 0-12-5.37-12-12s5.37-12 12-12c3.06 0 5.84 1.15 7.96 3.04l5.66-5.66C34.06 6.05 29.27 4 24 4C12.95 4 4 12.95 4 24s8.95 20 20 20s20-8.95 20-20c0-1.34-.14-2.65-.39-3.92z"/>
  <path fill="#FF3D00" d="M6.31 14.69l6.57 4.82C14.66 15.11 18.96 12 24 12c3.06 0 5.84 1.15 7.96 3.04l5.66-5.66C34.06 6.05 29.27 4 24 4c-7.68 0-14.32 4.34-17.69 10.69z"/>
  <path fill="#4CAF50" d="M24 44c5.17 0 9.86-1.98 13.4-5.2l-6.19-5.24C29.13 35.09 26.69 36 24 36c-5.19 0-9.62-3.32-11.28-7.94l-6.52 5.02C9.53 39.56 16.22 44 24 44z"/>
  <path fill="#1976D2" d="M43.61 20.08H42V20H24v8h11.3c-1.09 3.08-3.29 5.5-6.09 6.94l.01-.01l6.19 5.24C35 40.52 44 34 44 24c0-1.34-.14-2.65-.39-3.92z"/>
</svg>
